<svg xmlns="http://www.w3.org/2000/svg" xmlns:xlink="http://www.w3.org/1999/xlink" width="50" height="50" viewBox="0 0 50 50">
  <defs>
    <radialGradient id="radial-gradient" cx="0.5" cy="0.5" r="0.5" gradientUnits="objectBoundingBox">
      <stop offset="0" stop-color="#fff"/>
      <stop offset="1" stop-opacity="0"/>
    </radialGradient>
    <radialGradient id="radial-gradient-2" cx="0.521" cy="0.628" r="0.5" gradientUnits="objectBoundingBox">
      <stop offset="0" stop-color="#fff"/>
      <stop offset="1"/>
    </radialGradient>
  </defs>
  <g id="light" transform="translate(-681 -216)">
    <g id="border" transform="translate(681 216)" stroke="#fff" stroke-width="1" fill="url(#radial-gradient)">
      <circle cx="25" cy="25" r="25" stroke="none"/>
      <circle cx="25" cy="25" r="24.5" fill="none"/>
    </g>
    <g id="bulb" transform="translate(0 1)">
      <g id="bulb-2" data-name="bulb" transform="translate(696 229)" fill="url(#radial-gradient-2)">
        <path d="M 10.5 20.49999809265137 C 4.985980033874512 20.49999809265137 0.5 16.01401901245117 0.5 10.49999904632568 C 0.5 7.971958637237549 1.413740038871765 6.130908489227295 3.072520017623901 2.788708686828613 C 3.366440057754517 2.196518659591675 3.670350074768066 1.584168672561646 4.001339912414551 0.9041086435317993 C 4.397510051727295 0.08873866498470306 4.188769817352295 -0.8576313257217407 3.967780113220215 -1.85957133769989 C 3.730380058288574 -2.935871362686157 3.484910011291504 -4.048821449279785 3.99426007270813 -5.016951560974121 C 4.744760036468506 -6.44719123840332 5.878099918365479 -7.58302116394043 7.363049983978271 -8.39337158203125 C 7.671539783477783 -8.564441680908203 8.463230133056641 -8.766401290893555 10.5 -8.766401290893555 C 10.56785011291504 -8.766401290893555 10.6425199508667 -8.766891479492188 10.72294044494629 -8.767421722412109 C 10.81433963775635 -8.768031120300293 10.91335964202881 -8.768691062927246 11.01834011077881 -8.768691062927246 C 11.50553035736084 -8.768691062927246 12.79967021942139 -8.768691062927246 13.54819011688232 -8.386871337890625 L 13.55255031585693 -8.384651184082031 L 13.556960105896 -8.382511138916016 C 14.19386672973633 -8.07319164276123 16.13759994506836 -6.448267936706543 17.16537284851074 -5.012516498565674 C 17.34724998474121 -4.48464298248291 17.10641670227051 -3.641836881637573 16.85189056396484 -2.751121282577515 C 16.51531028747559 -1.57327127456665 16.13381958007812 -0.2382613271474838 16.62594985961914 0.8858286738395691 C 17.1385498046875 2.053398609161377 17.69701957702637 3.145178556442261 18.23708915710449 4.200998783111572 C 19.45133972167969 6.574798583984375 20.5 8.624878883361816 20.5 10.49999904632568 C 20.5 16.01401901245117 16.0140209197998 20.49999809265137 10.5 20.49999809265137 Z" stroke="none"/>
        <path d="M 11.01834011077881 -8.268692016601562 C 10.91454029083252 -8.268692016601562 10.81663036346436 -8.268032073974609 10.72624969482422 -8.267440795898438 C 10.64463996887207 -8.266891479492188 10.56886005401611 -8.266401290893555 10.5 -8.266401290893555 C 8.392580032348633 -8.266401290893555 7.775859832763672 -8.05055046081543 7.608519554138184 -7.957752227783203 L 7.60554027557373 -7.956100463867188 L 7.602560043334961 -7.954471588134766 C 6.205789566040039 -7.192241668701172 5.140830039978027 -6.125911712646484 4.436750411987305 -4.784151077270508 C 4.012569427490234 -3.977901458740234 4.22797966003418 -3.001251220703125 4.456039428710938 -1.96726131439209 C 4.68572998046875 -0.9259309768676758 4.923229217529297 0.150848388671875 4.450920104980469 1.122919082641602 C 4.119089126586914 1.804718971252441 3.814729690551758 2.41795825958252 3.520389556884766 3.010998725891113 C 1.842300415039062 6.39210844039917 1 8.089218139648438 1 10.49999904632568 C 1 15.73831844329834 5.261679649353027 20 10.5 20 C 15.73831939697266 20 20 15.73831844329834 20 10.49999904632568 C 20 8.745328903198242 18.97676086425781 6.744938850402832 17.79194068908691 4.428678512573242 C 17.24855041503906 3.366388320922852 16.68667030334473 2.267929077148438 16.16791915893555 1.086348533630371 C 15.6036205291748 -0.2025909423828125 16.01137924194336 -1.629541397094727 16.37112998962402 -2.888501167297363 C 16.56315040588379 -3.560476303100586 16.79894256591797 -4.385536193847656 16.70970153808594 -4.789081573486328 C 15.75819396972656 -6.082574844360352 13.91809844970703 -7.651269912719727 13.33852005004883 -7.932741165161133 L 13.32971000671387 -7.937021255493164 L 13.32098960876465 -7.941471099853516 C 12.67951965332031 -8.268692016601562 11.47266960144043 -8.268692016601562 11.01834011077881 -8.268692016601562 M 11.01834011077881 -9.268692016601562 C 11.83027362823486 -9.268692016601562 12.99595642089844 -9.229862213134766 13.775390625 -8.832271575927734 C 14.54660034179688 -8.457721710205078 16.59330940246582 -6.696121215820312 17.61010932922363 -5.249761581420898 C 18.20825004577637 -3.789551734924316 16.29373931884766 -1.119710922241211 17.08398056030273 0.6852989196777344 C 18.75650978088379 4.494918823242188 21 7.63770866394043 21 10.49999904632568 C 21 16.29898834228516 16.29899024963379 21 10.5 21 C 4.701009750366211 21 0 16.29898834228516 0 10.49999904632568 C 0 7.403358459472656 1.28672981262207 5.33914852142334 3.551759719848633 0.6852989196777344 C 4.262050628662109 -0.7765712738037109 2.469709396362305 -3.193080902099609 3.551759719848633 -5.249761581420898 C 4.24724006652832 -6.575141906738281 5.372220039367676 -7.876562118530273 7.123530387878418 -8.832271575927734 C 7.900440216064453 -9.263132095336914 9.836259841918945 -9.266401290893555 10.5 -9.266401290893555 C 10.64483070373535 -9.266401290893555 10.82119274139404 -9.268692016601562 11.01834011077881 -9.268692016601562 Z" stroke="none" fill="#fff"/>
      </g>
      <line id="line1" x2="14" transform="translate(699.5 224.5)" fill="none" stroke="#fff" stroke-width="1"/>
      <line id="line2" x2="13" transform="translate(699.5 226.5)" fill="none" stroke="#fff" stroke-width="1"/>
      <line id="line3" x2="14" transform="translate(699.5 224.5)" fill="none" stroke="#fff" stroke-width="1"/>
      <line id="line4" x2="12" transform="translate(700.5 228.5)" fill="none" stroke="#fff" stroke-width="1"/>
    </g>
  </g>
</svg>
